OmeBhatkhandeEnglish.ufo
<glyph name="plus" format="2">
  <advance width="1582"/>
  <unicode hex="002B"/>
  <outline>
    <contour>
      <point x="734" y="1052" type="line"/>
      <point x="849" y="1052" type="line"/>
      <point x="849" y="595" type="line"/>
      <point x="1308" y="595" type="line"/>
      <point x="1308" y="480" type="line"/>
      <point x="849" y="480" type="line"/>
      <point x="849" y="17" type="line"/>
      <point x="734" y="17" type="line"/>
      <point x="734" y="480" type="line"/>
      <point x="275" y="480" type="line"/>
      <point x="275" y="595" type="line"/>
      <point x="734" y="595" type="line"/>
    </contour>
  </outline>
</glyph>
<glyph name="comma" format="2">
  <advance width="1582"/>
  <unicode hex="002C"/>
  <outline>
    <contour>
      <point x="446" y="223" type="line"/>
      <point x="424" y="164"/>
      <point x="373" y="53"/>
      <point x="301" y="-66"/>
      <point x="207" y="-199"/>
      <point x="145" y="-279" type="qcurve"/>
      <point x="61" y="-317" type="line"/>
      <point x="33" y="-295" type="line"/>
      <point x="121" y="-147"/>
      <point x="207" y="74"/>
      <point x="217" y="190" type="qcurve"/>
      <point x="258" y="203"/>
      <point x="315" y="219"/>
      <point x="360" y="233"/>
      <point x="397" y="246"/>
      <point x="418" y="252" type="qcurve"/>
    </contour>
  </outline>
</glyph>
<glyph name="zero" format="2">
  <advance width="1582"/>
  <unicode hex="0030"/>
  <outline>
    <contour>
      <point x="875" y="1546" type="qcurve" smooth="yes"/>
      <point x="966" y="1546"/>
      <point x="1138" y="1440"/>
      <point x="1278" y="1246"/>
      <point x="1364" y="934"/>
      <point x="1364" y="556"/>
      <point x="1276" y="253"/>
      <point x="1133" y="71"/>
      <point x="966" y="-22"/>
      <point x="877" y="-22" type="qcurve" smooth="yes"/>
      <point x="683" y="-22"/>
      <point x="381" y="406"/>
      <point x="381" y="760" type="qcurve" smooth="yes"/>
      <point x="381" y="1108"/>
      <point x="681" y="1546"/>
    </contour>
    <contour>
      <point x="1116" y="1197" type="line"/>
      <point x="1067" y="1295"/>
      <point x="939" y="1396"/>
      <point x="873" y="1396" type="qcurve" smooth="yes"/>
      <point x="747" y="1396"/>
      <point x="541" y="1064"/>
      <point x="541" y="789" type="qcurve" smooth="yes"/>
      <point x="541" y="632"/>
      <point x="575" y="499" type="qcurve"/>
    </contour>
    <contour>
      <point x="1172" y="1032" type="qcurve"/>
      <point x="632" y="344" type="line"/>
      <point x="683" y="243"/>
      <point x="816" y="135"/>
      <point x="885" y="135" type="qcurve" smooth="yes"/>
      <point x="939" y="135"/>
      <point x="1045" y="202"/>
      <point x="1143" y="334"/>
      <point x="1204" y="573"/>
      <point x="1204" y="725" type="qcurve" smooth="yes"/>
      <point x="1204" y="895"/>
    </contour>
  </outline>
</glyph>
<glyph name="one" format="1">
  <advance width="1582"/>
  <unicode hex="0031"/>
  <outline>
    <contour>
      <point x="1094" y="1534" type="line"/>
      <point x="1094" y="-2" type="line"/>
      <point x="924" y="-2" type="line"/>
      <point x="924" y="1320" type="line"/>
      <point x="614" y="1229" type="line"/>
      <point x="575" y="1325" type="line"/>
      <point x="976" y="1534" type="line"/>
    </contour>
  </outline>
</glyph>
<glyph name="three" format="2">
  <advance width="1582"/>
  <unicode hex="0033"/>
  <outline>
    <contour>
      <point x="1266" y="1153" type="qcurve" smooth="yes"/>
      <point x="1266" y="1042"/>
      <point x="1141" y="860"/>
      <point x="1038" y="821" type="qcurve"/>
      <point x="1156" y="779"/>
      <point x="1301" y="563"/>
      <point x="1301" y="425" type="qcurve" smooth="yes"/>
      <point x="1301" y="241"/>
      <point x="1040" y="-22"/>
      <point x="829" y="-22" type="qcurve" smooth="yes"/>
      <point x="583" y="-22"/>
      <point x="426" y="152" type="qcurve"/>
      <point x="556" y="307" type="line"/>
      <point x="566" y="297"/>
      <point x="576" y="251"/>
      <point x="588" y="239" type="qcurve" smooth="yes"/>
      <point x="600" y="224"/>
      <point x="645" y="187"/>
      <point x="763" y="135"/>
      <point x="827" y="135" type="qcurve" smooth="yes"/>
      <point x="959" y="135"/>
      <point x="1136" y="320"/>
      <point x="1136" y="447" type="qcurve" smooth="yes"/>
      <point x="1136" y="583"/>
      <point x="935" y="737"/>
      <point x="775" y="737" type="qcurve" smooth="yes"/>
      <point x="736" y="737"/>
      <point x="699" y="732" type="qcurve"/>
      <point x="699" y="870" type="line"/>
      <point x="851" y="870"/>
      <point x="940" y="909" type="qcurve" smooth="yes"/>
      <point x="1016" y="944"/>
      <point x="1102" y="1077"/>
      <point x="1102" y="1150" type="qcurve" smooth="yes"/>
      <point x="1102" y="1249"/>
      <point x="952" y="1389"/>
      <point x="836" y="1389" type="qcurve" smooth="yes"/>
      <point x="682" y="1389"/>
      <point x="573" y="1271" type="qcurve"/>
      <point x="478" y="1376" type="line"/>
      <point x="628" y="1541"/>
      <point x="844" y="1541" type="qcurve" smooth="yes"/>
      <point x="1023" y="1541"/>
      <point x="1266" y="1312"/>
    </contour>
  </outline>
</glyph>
<glyph name="four" format="1">
  <advance width="1582"/>
  <unicode hex="0034"/>
  <outline>
    <contour>
      <point x="1028" y="1534" type="line"/>
      <point x="1173" y="1534" type="line"/>
      <point x="1173" y="575" type="line"/>
      <point x="1370" y="575" type="line"/>
      <point x="1370" y="423" type="line"/>
      <point x="1173" y="423" type="line"/>
      <point x="1173" y="0" type="line"/>
      <point x="994" y="0" type="line"/>
      <point x="994" y="425" type="line"/>
      <point x="377" y="425" type="line"/>
      <point x="377" y="551" type="line"/>
    </contour>
    <contour>
      <point x="996" y="1261" type="line"/>
      <point x="547" y="575" type="line"/>
      <point x="996" y="575" type="line"/>
    </contour>
  </outline>
</glyph>
<glyph name="five" format="2">
  <advance width="1582"/>
  <unicode hex="0035"/>
  <outline>
    <contour>
      <point x="504" y="1540" type="line"/>
      <point x="1281" y="1540" type="line"/>
      <point x="1281" y="1385" type="line"/>
      <point x="649" y="1385" type="line"/>
      <point x="625" y="945" type="line"/>
      <point x="745" y="1004"/>
      <point x="875" y="1004" type="qcurve" smooth="yes"/>
      <point x="1074" y="1004"/>
      <point x="1337" y="731"/>
      <point x="1337" y="493" type="qcurve" smooth="yes"/>
      <point x="1337" y="252"/>
      <point x="1062" y="-18"/>
      <point x="856" y="-18" type="qcurve" smooth="yes"/>
      <point x="718" y="-18"/>
      <point x="477" y="105"/>
      <point x="401" y="218" type="qcurve"/>
      <point x="553" y="331" type="line"/>
      <point x="566" y="323"/>
      <point x="568" y="279"/>
      <point x="571" y="274" type="qcurve" smooth="yes"/>
      <point x="588" y="240"/>
      <point x="748" y="132"/>
      <point x="853" y="132" type="qcurve" smooth="yes"/>
      <point x="983" y="132"/>
      <point x="1163" y="326"/>
      <point x="1163" y="495" type="qcurve" smooth="yes"/>
      <point x="1163" y="670"/>
      <point x="979" y="861"/>
      <point x="848" y="861" type="qcurve" smooth="yes"/>
      <point x="770" y="861"/>
      <point x="617" y="785"/>
      <point x="561" y="716" type="qcurve"/>
      <point x="453" y="761" type="line"/>
    </contour>
  </outline>
</glyph>
<glyph name="six" format="2">
  <advance width="1582"/>
  <unicode hex="0036"/>
  <outline>
    <contour>
      <point x="951" y="1553" type="qcurve" smooth="yes"/>
      <point x="1145" y="1553"/>
      <point x="1287" y="1413" type="qcurve"/>
      <point x="1167" y="1283" type="line"/>
      <point x="1155" y="1290"/>
      <point x="1137" y="1332"/>
      <point x="1130" y="1337" type="qcurve" smooth="yes"/>
      <point x="1123" y="1346"/>
      <point x="1083" y="1371"/>
      <point x="997" y="1400"/>
      <point x="953" y="1400" type="qcurve" smooth="yes"/>
      <point x="911" y="1400"/>
      <point x="830" y="1381"/>
      <point x="722" y="1305"/>
      <point x="643" y="1184"/>
      <point x="582" y="958"/>
      <point x="580" y="808" type="qcurve"/>
      <point x="631" y="894"/>
      <point x="806" y="993"/>
      <point x="904" y="993" type="qcurve" smooth="yes"/>
      <point x="1076" y="993"/>
      <point x="1324" y="720"/>
      <point x="1324" y="263"/>
      <point x="1069" y="-20"/>
      <point x="887" y="-20" type="qcurve" smooth="yes"/>
      <point x="784" y="-20"/>
      <point x="592" y="83"/>
      <point x="526" y="182" type="qcurve" smooth="yes"/>
      <point x="410" y="358"/>
      <point x="410" y="703" type="qcurve" smooth="yes"/>
      <point x="410" y="988"/>
      <point x="476" y="1172" type="qcurve" smooth="yes"/>
      <point x="543" y="1364"/>
      <point x="803" y="1553"/>
    </contour>
    <contour>
      <point x="889" y="843" type="qcurve" smooth="yes"/>
      <point x="803" y="843"/>
      <point x="641" y="730"/>
      <point x="589" y="636" type="qcurve"/>
      <point x="575" y="425"/>
      <point x="754" y="132"/>
      <point x="894" y="132" type="qcurve" smooth="yes"/>
      <point x="1002" y="132"/>
      <point x="1157" y="314"/>
      <point x="1157" y="484" type="qcurve" smooth="yes"/>
      <point x="1157" y="666"/>
      <point x="995" y="843"/>
    </contour>
  </outline>
</glyph>
<glyph name="eight" format="2">
  <advance width="1582"/>
  <unicode hex="0038"/>
  <outline>
    <contour>
      <point x="888" y="1555" type="qcurve" smooth="yes"/>
      <point x="1057" y="1555"/>
      <point x="1286" y="1344"/>
      <point x="1286" y="1192" type="qcurve" smooth="yes"/>
      <point x="1286" y="1081"/>
      <point x="1153" y="882"/>
      <point x="1042" y="823" type="qcurve"/>
      <point x="1175" y="762"/>
      <point x="1337" y="533"/>
      <point x="1337" y="400" type="qcurve" smooth="yes"/>
      <point x="1337" y="223"/>
      <point x="1067" y="-20"/>
      <point x="868" y="-20" type="qcurve" smooth="yes"/>
      <point x="669" y="-20"/>
      <point x="401" y="218"/>
      <point x="401" y="390" type="qcurve" smooth="yes"/>
      <point x="401" y="521"/>
      <point x="571" y="754"/>
      <point x="708" y="818" type="qcurve"/>
      <point x="603" y="872"/>
      <point x="475" y="1066"/>
      <point x="475" y="1177" type="qcurve" smooth="yes"/>
      <point x="475" y="1334"/>
      <point x="713" y="1555"/>
    </contour>
    <contour>
      <point x="836" y="749" type="qcurve"/>
      <point x="725" y="703"/>
      <point x="578" y="518"/>
      <point x="578" y="413" type="qcurve" smooth="yes"/>
      <point x="578" y="297"/>
      <point x="750" y="135"/>
      <point x="875" y="135" type="qcurve" smooth="yes"/>
      <point x="996" y="135"/>
      <point x="1163" y="290"/>
      <point x="1163" y="513"/>
      <point x="986" y="703"/>
    </contour>
    <contour>
      <point x="875" y="1410" type="qcurve" smooth="yes"/>
      <point x="775" y="1410"/>
      <point x="639" y="1283"/>
      <point x="639" y="1192" type="qcurve" smooth="yes"/>
      <point x="639" y="1123"/>
      <point x="723" y="997"/>
      <point x="824" y="926"/>
      <point x="868" y="907" type="qcurve"/>
      <point x="910" y="884" type="line"/>
      <point x="1001" y="934"/>
      <point x="1119" y="1096"/>
      <point x="1119" y="1182" type="qcurve" smooth="yes"/>
      <point x="1119" y="1278"/>
      <point x="979" y="1410"/>
    </contour>
  </outline>
</glyph>
<glyph name="nine" format="1">
  <advance width="1582"/>
  <unicode hex="0039"/>
  <outline>
    <contour>
      <point x="779" y="-20" type="qcurve" smooth="yes"/>
      <point x="583" y="-20"/>
      <point x="440" y="120" type="qcurve"/>
      <point x="560" y="250" type="line"/>
      <point x="573" y="243"/>
      <point x="590" y="199"/>
      <point x="600" y="191" type="qcurve" smooth="yes"/>
      <point x="671" y="135"/>
      <point x="784" y="135" type="qcurve" smooth="yes"/>
      <point x="875" y="135"/>
      <point x="1042" y="238"/>
      <point x="1086" y="346" type="qcurve" smooth="yes"/>
      <point x="1143" y="476"/>
      <point x="1150" y="725" type="qcurve"/>
      <point x="1096" y="648"/>
      <point x="929" y="560"/>
      <point x="833" y="560" type="qcurve" smooth="yes"/>
      <point x="661" y="560"/>
      <point x="413" y="830"/>
      <point x="413" y="1044" type="qcurve" smooth="yes"/>
      <point x="413" y="1263"/>
      <point x="671" y="1550"/>
      <point x="853" y="1550" type="qcurve" smooth="yes"/>
      <point x="983" y="1550"/>
      <point x="1212" y="1383"/>
      <point x="1268" y="1219" type="qcurve" smooth="yes"/>
      <point x="1320" y="1064"/>
      <point x="1320" y="791" type="qcurve" smooth="yes"/>
      <point x="1320" y="508"/>
      <point x="1256" y="336" type="qcurve" smooth="yes"/>
      <point x="1190" y="159"/>
      <point x="929" y="-20"/>
    </contour>
    <contour>
      <point x="850" y="710" type="qcurve" smooth="yes"/>
      <point x="934" y="710"/>
      <point x="1089" y="811"/>
      <point x="1140" y="897" type="qcurve"/>
      <point x="1160" y="1120"/>
      <point x="986" y="1398"/>
      <point x="848" y="1398" type="qcurve" smooth="yes"/>
      <point x="737" y="1398"/>
      <point x="580" y="1211"/>
      <point x="580" y="1052" type="qcurve" smooth="yes"/>
      <point x="580" y="889"/>
      <point x="740" y="710"/>
    </contour>
  </outline>
</glyph>
<glyph name="D" format="1">
  <advance width="1582"/>
  <unicode hex="0044"/>
  <outline>
    <contour>
      <point x="1271" y="-400" type="line"/>
      <point x="311" y="-400" type="line"/>
      <point x="311" y="-300" type="line"/>
      <point x="1271" y="-300" type="line"/>
    </contour>
    <contour>
      <point x="292" y="1532" type="line"/>
      <point x="648" y="1532" type="line" smooth="yes"/>
      <point x="766" y="1532"/>
      <point x="929" y="1500"/>
      <point x="1005" y="1450" type="qcurve" smooth="yes"/>
      <point x="1150" y="1357"/>
      <point x="1290" y="998"/>
      <point x="1290" y="770" type="qcurve" smooth="yes"/>
      <point x="1290" y="517"/>
      <point x="1115" y="143"/>
      <point x="951" y="59" type="qcurve" smooth="yes"/>
      <point x="830" y="-2"/>
      <point x="619" y="-2" type="qcurve" smooth="yes"/>
      <point x="292" y="-2" type="line"/>
    </contour>
    <contour>
      <point x="453" y="1387" type="line"/>
      <point x="453" y="133" type="line"/>
      <point x="610" y="133" type="line" smooth="yes"/>
      <point x="701" y="133"/>
      <point x="832" y="160"/>
      <point x="896" y="202" type="qcurve" smooth="yes"/>
      <point x="1117" y="352"/>
      <point x="1117" y="745" type="qcurve" smooth="yes"/>
      <point x="1117" y="1143"/>
      <point x="925" y="1301" type="qcurve" smooth="yes"/>
      <point x="861" y="1355"/>
      <point x="728" y="1387"/>
      <point x="638" y="1387" type="qcurve" smooth="yes"/>
    </contour>
  </outline>
</glyph>
<glyph name="G" format="2">
  <advance width="1582"/>
  <unicode hex="0047"/>
  <outline>
    <contour>
      <point x="1272" y="-400" type="line"/>
      <point x="312" y="-400" type="line"/>
      <point x="312" y="-300" type="line"/>
      <point x="1272" y="-300" type="line"/>
    </contour>
    <contour>
      <point x="862" y="1550" type="qcurve" smooth="yes"/>
      <point x="1005" y="1550"/>
      <point x="1241" y="1413"/>
      <point x="1307" y="1295" type="qcurve"/>
      <point x="1187" y="1172" type="line"/>
      <point x="1172" y="1182"/>
      <point x="1155" y="1219" type="qcurve" smooth="yes"/>
      <point x="1118" y="1300"/>
      <point x="961" y="1400"/>
      <point x="862" y="1400" type="qcurve" smooth="yes"/>
      <point x="759" y="1400"/>
      <point x="575" y="1287"/>
      <point x="518" y="1182" type="qcurve" smooth="yes"/>
      <point x="440" y="1037"/>
      <point x="440" y="789" type="qcurve" smooth="yes"/>
      <point x="440" y="432"/>
      <point x="587" y="265" type="qcurve" smooth="yes"/>
      <point x="703" y="132"/>
      <point x="877" y="132" type="qcurve" smooth="yes"/>
      <point x="1022" y="132"/>
      <point x="1152" y="226" type="qcurve"/>
      <point x="1152" y="589" type="line"/>
      <point x="875" y="589" type="line"/>
      <point x="875" y="739" type="line"/>
      <point x="1312" y="739" type="line"/>
      <point x="1312" y="140" type="line"/>
      <point x="1096" y="-20"/>
      <point x="862" y="-20" type="qcurve" smooth="yes"/>
      <point x="779" y="-20"/>
      <point x="617" y="29"/>
      <point x="459" y="145"/>
      <point x="344" y="314"/>
      <point x="270" y="585"/>
      <point x="270" y="752" type="qcurve" smooth="yes"/>
      <point x="270" y="943"/>
      <point x="356" y="1241"/>
      <point x="484" y="1408"/>
      <point x="651" y="1516"/>
      <point x="793" y="1550"/>
    </contour>
  </outline>
</glyph>
<glyph name="L" format="2">
  <advance width="0"/>
  <unicode hex="004C"/>
  <outline>
    <contour>
      <point x="-428" y="-824" type="line"/>
      <point x="-492" y="-902" type="line"/>
      <point x="-544" y="-960" type="line"/>
      <point x="-566" y="-972"/>
      <point x="-578" y="-972" type="qcurve" smooth="yes"/>
      <point x="-594" y="-972"/>
      <point x="-662" y="-892" type="qcurve" smooth="yes"/>
      <point x="-725" y="-820" type="line"/>
      <point x="-725" y="-783" type="line"/>
      <point x="-650" y="-681" type="line" smooth="yes"/>
      <point x="-622" y="-643"/>
      <point x="-594" y="-627" type="qcurve"/>
      <point x="-566" y="-627"/>
      <point x="-428" y="-783" type="qcurve"/>
      <point x="-426" y="-804" type="line"/>
    </contour>
    <contour>
      <point x="-873" y="-824" type="line"/>
      <point x="-937" y="-902" type="line"/>
      <point x="-989" y="-960" type="line"/>
      <point x="-1011" y="-972"/>
      <point x="-1023" y="-972" type="qcurve" smooth="yes"/>
      <point x="-1039" y="-972"/>
      <point x="-1107" y="-892" type="qcurve" smooth="yes"/>
      <point x="-1170" y="-820" type="line"/>
      <point x="-1170" y="-783" type="line"/>
      <point x="-1095" y="-681" type="line" smooth="yes"/>
      <point x="-1067" y="-643"/>
      <point x="-1039" y="-627" type="qcurve"/>
      <point x="-1011" y="-627"/>
      <point x="-873" y="-783" type="qcurve"/>
      <point x="-871" y="-804" type="line"/>
    </contour>
  </outline>
</glyph>
<glyph name="M" format="2">
  <advance width="1582"/>
  <unicode hex="004D"/>
  <outline>
    <contour>
      <point x="844" y="2000" type="line"/>
      <point x="844" y="1300" type="line"/>
      <point x="744" y="1300" type="line"/>
      <point x="744" y="2000" type="line"/>
    </contour>
    <contour>
      <point x="277" y="1532" type="line"/>
      <point x="412" y="1532" type="line"/>
      <point x="791" y="782" type="line"/>
      <point x="1176" y="1534" type="line"/>
      <point x="1307" y="1534" type="line"/>
      <point x="1307" y="-2" type="line"/>
      <point x="1145" y="-2" type="line"/>
      <point x="1145" y="1156" type="line"/>
      <point x="813" y="539" type="line"/>
      <point x="746" y="539" type="line"/>
      <point x="437" y="1148" type="line"/>
      <point x="437" y="-2" type="line"/>
      <point x="277" y="-2" type="line"/>
    </contour>
  </outline>
</glyph>
<glyph name="N" format="2">
  <advance width="1582"/>
  <unicode hex="004E"/>
  <outline>
    <contour>
      <point x="1273" y="-400" type="line"/>
      <point x="313" y="-400" type="line"/>
      <point x="313" y="-300" type="line"/>
      <point x="1273" y="-300" type="line"/>
    </contour>
    <contour>
      <point x="295" y="0" type="line"/>
      <point x="295" y="1532" type="line"/>
      <point x="462" y="1532" type="line"/>
      <point x="1106" y="396" type="line"/>
      <point x="1106" y="1534" type="line"/>
      <point x="1288" y="1534" type="line"/>
      <point x="1290" y="1519"/>
      <point x="1280" y="1502" type="qcurve" smooth="yes"/>
      <point x="1271" y="1485"/>
      <point x="1271" y="1468" type="qcurve" smooth="yes"/>
      <point x="1271" y="-2" type="line"/>
      <point x="1135" y="-2" type="line"/>
      <point x="460" y="1205" type="line"/>
      <point x="460" y="0" type="line"/>
    </contour>
  </outline>
</glyph>
<glyph name="R" format="1">
  <advance width="1582"/>
  <unicode hex="0052"/>
  <outline>
    <contour>
      <point x="1273" y="-400" type="line"/>
      <point x="313" y="-400" type="line"/>
      <point x="313" y="-300" type="line"/>
      <point x="1273" y="-300" type="line"/>
    </contour>
    <contour>
      <point x="291" y="1531" type="line"/>
      <point x="743" y="1531" type="line" smooth="yes"/>
      <point x="935" y="1531"/>
      <point x="1036" y="1479" type="qcurve" smooth="yes"/>
      <point x="1139" y="1428"/>
      <point x="1252" y="1229"/>
      <point x="1252" y="1111" type="qcurve" smooth="yes"/>
      <point x="1252" y="958"/>
      <point x="1080" y="720"/>
      <point x="940" y="683" type="qcurve"/>
      <point x="1294" y="0" type="line"/>
      <point x="1102" y="0" type="line"/>
      <point x="763" y="676" type="line"/>
      <point x="465" y="676" type="line"/>
      <point x="465" y="0" type="line"/>
      <point x="291" y="0" type="line"/>
    </contour>
    <contour>
      <point x="465" y="1369" type="line"/>
      <point x="465" y="828" type="line"/>
      <point x="763" y="828" type="line" smooth="yes"/>
      <point x="878" y="828"/>
      <point x="940" y="858" type="qcurve" smooth="yes"/>
      <point x="1006" y="892"/>
      <point x="1075" y="1017"/>
      <point x="1075" y="1091" type="qcurve" smooth="yes"/>
      <point x="1075" y="1170"/>
      <point x="1001" y="1303"/>
      <point x="930" y="1337" type="qcurve" smooth="yes"/>
      <point x="866" y="1369"/>
      <point x="743" y="1369" type="qcurve" smooth="yes"/>
    </contour>
  </outline>
</glyph>
<glyph name="bracketleft" format="1">
  <advance width="1582"/>
  <unicode hex="005B"/>
  <outline>
    <contour>
      <point x="331" y="1157" type="qcurve"/>
      <point x="348" y="1189" type="line"/>
      <point x="538" y="1126"/>
      <point x="771" y="793"/>
      <point x="771" y="587" type="qcurve" smooth="yes"/>
      <point x="771" y="344"/>
      <point x="475" y="-4"/>
      <point x="273" y="-4" type="qcurve" smooth="yes"/>
      <point x="159" y="-4"/>
      <point x="21" y="144"/>
      <point x="21" y="259" type="qcurve" smooth="yes"/>
      <point x="21" y="450"/>
      <point x="329" y="762"/>
      <point x="481" y="762" type="qcurve" smooth="yes"/>
      <point x="567" y="762"/>
      <point x="632" y="700" type="qcurve"/>
      <point x="616" y="1052"/>
    </contour>
    <contour>
      <point x="480" y="719" type="qcurve" smooth="yes"/>
      <point x="360" y="719"/>
      <point x="155" y="374"/>
      <point x="155" y="206" type="qcurve" smooth="yes"/>
      <point x="155" y="124"/>
      <point x="235" y="36"/>
      <point x="302" y="36" type="qcurve" smooth="yes"/>
      <point x="410" y="36"/>
      <point x="615" y="378"/>
      <point x="615" y="552" type="qcurve" smooth="yes"/>
      <point x="615" y="719"/>
    </contour>
    <contour>
      <point x="1564" y="742" type="line"/>
      <point x="1403" y="183" type="line"/>
      <point x="1385" y="108" type="line" smooth="yes"/>
      <point x="1382" y="97"/>
      <point x="1382" y="90" type="qcurve" smooth="yes"/>
      <point x="1382" y="77"/>
      <point x="1391" y="67" type="qcurve" smooth="yes"/>
      <point x="1397" y="59"/>
      <point x="1407" y="59" type="qcurve" smooth="yes"/>
      <point x="1418" y="59"/>
      <point x="1435" y="73" type="qcurve" smooth="yes"/>
      <point x="1467" y="96"/>
      <point x="1521" y="172" type="qcurve"/>
      <point x="1549" y="152" type="line"/>
      <point x="1492" y="66"/>
      <point x="1372" y="-24"/>
      <point x="1320" y="-24" type="qcurve" smooth="yes"/>
      <point x="1285" y="-24"/>
      <point x="1249" y="11"/>
      <point x="1249" y="45" type="qcurve" smooth="yes"/>
      <point x="1249" y="86"/>
      <point x="1268" y="152" type="qcurve" smooth="yes"/>
      <point x="1285" y="214" type="line"/>
      <point x="1177" y="73"/>
      <point x="1086" y="16" type="qcurve" smooth="yes"/>
      <point x="1021" y="-24"/>
      <point x="958" y="-24" type="qcurve" smooth="yes"/>
      <point x="898" y="-24"/>
      <point x="811" y="76"/>
      <point x="811" y="163" type="qcurve" smooth="yes"/>
      <point x="811" y="294"/>
      <point x="968" y="586"/>
      <point x="1089" y="673" type="qcurve" smooth="yes"/>
      <point x="1184" y="742"/>
      <point x="1268" y="742" type="qcurve" smooth="yes"/>
      <point x="1319" y="742"/>
      <point x="1386" y="690"/>
      <point x="1403" y="629" type="qcurve"/>
      <point x="1433" y="723" type="line"/>
    </contour>
    <contour>
      <point x="1270" y="700" type="qcurve" smooth="yes"/>
      <point x="1217" y="700"/>
      <point x="1158" y="650" type="qcurve" smooth="yes"/>
      <point x="1074" y="580"/>
      <point x="943" y="304"/>
      <point x="943" y="193" type="qcurve" smooth="yes"/>
      <point x="943" y="137"/>
      <point x="999" y="72"/>
      <point x="1035" y="72" type="qcurve" smooth="yes"/>
      <point x="1125" y="72"/>
      <point x="1230" y="205" type="qcurve" smooth="yes"/>
      <point x="1372" y="381"/>
      <point x="1372" y="567" type="qcurve" smooth="yes"/>
      <point x="1372" y="637"/>
      <point x="1317" y="700"/>
    </contour>
  </outline>
</glyph>
<glyph name="backslash" format="2">
  <advance width="3164"/>
  <unicode hex="005C"/>
  <outline>
    <contour>
      <point x="2722" y="-1200" type="qcurve"/>
      <point x="2769" y="-1200" type="line"/>
      <point x="2672" y="-1350"/>
      <point x="2542" y="-1451" type="qcurve" smooth="yes"/>
      <point x="2357" y="-1594"/>
      <point x="1854" y="-1750"/>
      <point x="1584" y="-1750" type="qcurve" smooth="yes"/>
      <point x="1189" y="-1750"/>
      <point x="537" y="-1445"/>
      <point x="396" y="-1200" type="qcurve"/>
      <point x="450" y="-1200" type="line"/>
      <point x="537" y="-1322"/>
      <point x="838" y="-1479"/>
      <point x="1300" y="-1557"/>
      <point x="1551" y="-1557" type="qcurve" smooth="yes"/>
      <point x="1824" y="-1557"/>
      <point x="2047" y="-1524" type="qcurve" smooth="yes"/>
      <point x="2223" y="-1498"/>
      <point x="2436" y="-1425"/>
      <point x="2632" y="-1300"/>
    </contour>
    <contour>
      <point x="1842" y="701" type="line"/>
      <point x="2127" y="747" type="line"/>
      <point x="2008" y="346" type="line"/>
      <point x="2153" y="593"/>
      <point x="2271" y="691" type="qcurve" smooth="yes"/>
      <point x="2337" y="747"/>
      <point x="2380" y="747" type="qcurve" smooth="yes"/>
      <point x="2407" y="747"/>
      <point x="2438" y="715"/>
      <point x="2438" y="684" type="qcurve" smooth="yes"/>
      <point x="2438" y="630"/>
      <point x="2410" y="580" type="qcurve" smooth="yes"/>
      <point x="2390" y="543"/>
      <point x="2353" y="543" type="qcurve" smooth="yes"/>
      <point x="2334" y="543"/>
      <point x="2307" y="568"/>
      <point x="2304" y="594" type="qcurve" smooth="yes"/>
      <point x="2302" y="609"/>
      <point x="2296" y="614" type="qcurve" smooth="yes"/>
      <point x="2290" y="621"/>
      <point x="2281" y="621" type="qcurve" smooth="yes"/>
      <point x="2267" y="621"/>
      <point x="2254" y="614" type="qcurve" smooth="yes"/>
      <point x="2233" y="603"/>
      <point x="2189" y="550" type="qcurve" smooth="yes"/>
      <point x="2120" y="469"/>
      <point x="2040" y="340" type="qcurve" smooth="yes"/>
      <point x="2006" y="286"/>
      <point x="1981" y="217" type="qcurve" smooth="yes"/>
      <point x="1946" y="123"/>
      <point x="1941" y="104" type="qcurve" smooth="yes"/>
      <point x="1915" y="0" type="line"/>
      <point x="1789" y="0" type="line"/>
      <point x="1941" y="513" type="line" smooth="yes"/>
      <point x="1968" y="602"/>
      <point x="1968" y="640" type="qcurve" smooth="yes"/>
      <point x="1968" y="655"/>
      <point x="1955" y="665" type="qcurve" smooth="yes"/>
      <point x="1939" y="678"/>
      <point x="1912" y="678" type="qcurve" smooth="yes"/>
      <point x="1894" y="678"/>
      <point x="1848" y="670" type="qcurve"/>
    </contour>
    <contour>
      <point x="928" y="1161" type="qcurve"/>
      <point x="945" y="1193" type="line"/>
      <point x="1135" y="1130"/>
      <point x="1368" y="797"/>
      <point x="1368" y="590" type="qcurve" smooth="yes"/>
      <point x="1368" y="348"/>
      <point x="1072" y="0"/>
      <point x="870" y="0" type="qcurve" smooth="yes"/>
      <point x="756" y="0"/>
      <point x="618" y="148"/>
      <point x="618" y="263" type="qcurve" smooth="yes"/>
      <point x="618" y="454"/>
      <point x="926" y="766"/>
      <point x="1078" y="766" type="qcurve" smooth="yes"/>
      <point x="1164" y="766"/>
      <point x="1229" y="703" type="qcurve"/>
      <point x="1213" y="1056"/>
    </contour>
    <contour>
      <point x="1077" y="722" type="qcurve" smooth="yes"/>
      <point x="957" y="722"/>
      <point x="752" y="378"/>
      <point x="752" y="210" type="qcurve" smooth="yes"/>
      <point x="752" y="128"/>
      <point x="832" y="40"/>
      <point x="898" y="40" type="qcurve" smooth="yes"/>
      <point x="1006" y="40"/>
      <point x="1212" y="382"/>
      <point x="1212" y="556" type="qcurve" smooth="yes"/>
      <point x="1212" y="722"/>
    </contour>
    <contour>
      <point x="1695" y="1071" type="qcurve" smooth="yes"/>
      <point x="1730" y="1071"/>
      <point x="1778" y="1023"/>
      <point x="1778" y="988" type="qcurve" smooth="yes"/>
      <point x="1778" y="955"/>
      <point x="1729" y="906"/>
      <point x="1695" y="906" type="qcurve" smooth="yes"/>
      <point x="1661" y="906"/>
      <point x="1613" y="955"/>
      <point x="1613" y="988" type="qcurve" smooth="yes"/>
      <point x="1613" y="1023"/>
      <point x="1661" y="1071"/>
    </contour>
    <contour>
      <point x="1706" y="743" type="line"/>
      <point x="1543" y="165" type="line" smooth="yes"/>
      <point x="1526" y="107"/>
      <point x="1526" y="95" type="qcurve" smooth="yes"/>
      <point x="1526" y="82"/>
      <point x="1542" y="65"/>
      <point x="1553" y="65" type="qcurve" smooth="yes"/>
      <point x="1565" y="65"/>
      <point x="1582" y="78" type="qcurve" smooth="yes"/>
      <point x="1629" y="116"/>
      <point x="1677" y="184" type="qcurve"/>
      <point x="1706" y="165" type="line"/>
      <point x="1650" y="79"/>
      <point x="1574" y="21" type="qcurve" smooth="yes"/>
      <point x="1518" y="-23"/>
      <point x="1467" y="-23" type="qcurve" smooth="yes"/>
      <point x="1433" y="-23"/>
      <point x="1390" y="17"/>
      <point x="1390" y="48" type="qcurve" smooth="yes"/>
      <point x="1390" y="78"/>
      <point x="1411" y="149" type="qcurve" smooth="yes"/>
      <point x="1518" y="519" type="line" smooth="yes"/>
      <point x="1544" y="610"/>
      <point x="1544" y="633" type="qcurve" smooth="yes"/>
      <point x="1544" y="651"/>
      <point x="1519" y="674"/>
      <point x="1496" y="674" type="qcurve" smooth="yes"/>
      <point x="1478" y="674"/>
      <point x="1421" y="665" type="qcurve"/>
      <point x="1421" y="697" type="line"/>
    </contour>
  </outline>
</glyph>
<glyph name="bracketright" format="1">
  <advance width="1582"/>
  <unicode hex="005D"/>
  <outline>
    <contour>
      <point x="1448" y="742" type="line"/>
      <point x="1288" y="183" type="line"/>
      <point x="1269" y="108" type="line" smooth="yes"/>
      <point x="1267" y="97"/>
      <point x="1267" y="90" type="qcurve" smooth="yes"/>
      <point x="1267" y="77"/>
      <point x="1275" y="67" type="qcurve" smooth="yes"/>
      <point x="1282" y="59"/>
      <point x="1292" y="59" type="qcurve" smooth="yes"/>
      <point x="1302" y="59"/>
      <point x="1320" y="73" type="qcurve" smooth="yes"/>
      <point x="1352" y="96"/>
      <point x="1405" y="172" type="qcurve"/>
      <point x="1434" y="152" type="line"/>
      <point x="1377" y="66"/>
      <point x="1256" y="-24"/>
      <point x="1205" y="-24" type="qcurve" smooth="yes"/>
      <point x="1170" y="-24"/>
      <point x="1134" y="11"/>
      <point x="1134" y="45" type="qcurve" smooth="yes"/>
      <point x="1134" y="86"/>
      <point x="1152" y="152" type="qcurve" smooth="yes"/>
      <point x="1170" y="214" type="line"/>
      <point x="1061" y="73"/>
      <point x="971" y="16" type="qcurve" smooth="yes"/>
      <point x="906" y="-24"/>
      <point x="843" y="-24" type="qcurve" smooth="yes"/>
      <point x="783" y="-24"/>
      <point x="695" y="76"/>
      <point x="695" y="163" type="qcurve" smooth="yes"/>
      <point x="695" y="294"/>
      <point x="853" y="586"/>
      <point x="974" y="673" type="qcurve" smooth="yes"/>
      <point x="1069" y="742"/>
      <point x="1153" y="742" type="qcurve" smooth="yes"/>
      <point x="1203" y="742"/>
      <point x="1270" y="690"/>
      <point x="1288" y="629" type="qcurve"/>
      <point x="1317" y="723" type="line"/>
    </contour>
    <contour>
      <point x="1155" y="700" type="qcurve" smooth="yes"/>
      <point x="1102" y="700"/>
      <point x="1042" y="650" type="qcurve" smooth="yes"/>
      <point x="958" y="580"/>
      <point x="827" y="304"/>
      <point x="827" y="193" type="qcurve" smooth="yes"/>
      <point x="827" y="137"/>
      <point x="883" y="72"/>
      <point x="920" y="72" type="qcurve" smooth="yes"/>
      <point x="1009" y="72"/>
      <point x="1115" y="205" type="qcurve" smooth="yes"/>
      <point x="1256" y="381"/>
      <point x="1256" y="567" type="qcurve" smooth="yes"/>
      <point x="1256" y="637"/>
      <point x="1202" y="700"/>
    </contour>
    <contour>
      <point x="190" y="700" type="line"/>
      <point x="474" y="747" type="line"/>
      <point x="355" y="346" type="line"/>
      <point x="500" y="592"/>
      <point x="618" y="691" type="qcurve" smooth="yes"/>
      <point x="685" y="747"/>
      <point x="727" y="747" type="qcurve" smooth="yes"/>
      <point x="754" y="747"/>
      <point x="785" y="714"/>
      <point x="785" y="684" type="qcurve" smooth="yes"/>
      <point x="785" y="629"/>
      <point x="757" y="580" type="qcurve" smooth="yes"/>
      <point x="737" y="543"/>
      <point x="700" y="543" type="qcurve" smooth="yes"/>
      <point x="681" y="543"/>
      <point x="654" y="568"/>
      <point x="651" y="593" type="qcurve" smooth="yes"/>
      <point x="649" y="609"/>
      <point x="643" y="614" type="qcurve" smooth="yes"/>
      <point x="637" y="620"/>
      <point x="628" y="620" type="qcurve" smooth="yes"/>
      <point x="614" y="620"/>
      <point x="601" y="614" type="qcurve" smooth="yes"/>
      <point x="580" y="602"/>
      <point x="536" y="549" type="qcurve" smooth="yes"/>
      <point x="468" y="469"/>
      <point x="388" y="340" type="qcurve" smooth="yes"/>
      <point x="353" y="285"/>
      <point x="328" y="217" type="qcurve" smooth="yes"/>
      <point x="294" y="123"/>
      <point x="289" y="104" type="qcurve" smooth="yes"/>
      <point x="262" y="0" type="line"/>
      <point x="136" y="0" type="line"/>
      <point x="289" y="512" type="line" smooth="yes"/>
      <point x="315" y="601"/>
      <point x="315" y="639" type="qcurve" smooth="yes"/>
      <point x="315" y="654"/>
      <point x="303" y="664" type="qcurve" smooth="yes"/>
      <point x="286" y="677"/>
      <point x="259" y="677" type="qcurve" smooth="yes"/>
      <point x="242" y="677"/>
      <point x="195" y="670" type="qcurve"/>
    </contour>
  </outline>
</glyph>
<glyph name="d" format="1">
  <advance width="1582"/>
  <unicode hex="0064"/>
  <outline>
    <contour>
      <point x="292" y="1532" type="line"/>
      <point x="648" y="1532" type="line" smooth="yes"/>
      <point x="766" y="1532"/>
      <point x="929" y="1500"/>
      <point x="1005" y="1450" type="qcurve" smooth="yes"/>
      <point x="1150" y="1357"/>
      <point x="1290" y="998"/>
      <point x="1290" y="770" type="qcurve" smooth="yes"/>
      <point x="1290" y="517"/>
      <point x="1115" y="143"/>
      <point x="951" y="59" type="qcurve" smooth="yes"/>
      <point x="830" y="-2"/>
      <point x="619" y="-2" type="qcurve" smooth="yes"/>
      <point x="292" y="-2" type="line"/>
    </contour>
    <contour>
      <point x="454" y="1387" type="line"/>
      <point x="454" y="133" type="line"/>
      <point x="611" y="133" type="line" smooth="yes"/>
      <point x="702" y="133"/>
      <point x="833" y="160"/>
      <point x="897" y="202" type="qcurve" smooth="yes"/>
      <point x="1118" y="352"/>
      <point x="1118" y="745" type="qcurve" smooth="yes"/>
      <point x="1118" y="1143"/>
      <point x="926" y="1301" type="qcurve" smooth="yes"/>
      <point x="862" y="1355"/>
      <point x="729" y="1387"/>
      <point x="639" y="1387" type="qcurve" smooth="yes"/>
    </contour>
  </outline>
</glyph>
<glyph name="m" format="2">
  <advance width="1582"/>
  <unicode hex="006D"/>
  <outline>
    <contour>
      <point x="276" y="1532" type="line"/>
      <point x="411" y="1532" type="line"/>
      <point x="790" y="782" type="line"/>
      <point x="1175" y="1534" type="line"/>
      <point x="1306" y="1534" type="line"/>
      <point x="1306" y="-2" type="line"/>
      <point x="1144" y="-2" type="line"/>
      <point x="1144" y="1156" type="line"/>
      <point x="812" y="539" type="line"/>
      <point x="745" y="539" type="line"/>
      <point x="436" y="1148" type="line"/>
      <point x="436" y="-2" type="line"/>
      <point x="276" y="-2" type="line"/>
    </contour>
  </outline>
</glyph>
<glyph name="n" format="1">
  <advance width="1582"/>
  <unicode hex="006E"/>
  <outline>
    <contour>
      <point x="294" y="0" type="line"/>
      <point x="294" y="1532" type="line"/>
      <point x="461" y="1532" type="line"/>
      <point x="1105" y="396" type="line"/>
      <point x="1105" y="1534" type="line"/>
      <point x="1287" y="1534" type="line"/>
      <point x="1289" y="1519"/>
      <point x="1279" y="1502" type="qcurve" smooth="yes"/>
      <point x="1270" y="1485"/>
      <point x="1270" y="1468" type="qcurve" smooth="yes"/>
      <point x="1270" y="-2" type="line"/>
      <point x="1134" y="-2" type="line"/>
      <point x="459" y="1205" type="line"/>
      <point x="459" y="0" type="line"/>
    </contour>
  </outline>
</glyph>
<glyph name="p" format="2">
  <advance width="1582"/>
  <unicode hex="0070"/>
  <outline>
    <contour>
      <point x="304" y="1531" type="line"/>
      <point x="771" y="1531" type="line" smooth="yes"/>
      <point x="958" y="1531"/>
      <point x="1058" y="1479" type="qcurve" smooth="yes"/>
      <point x="1164" y="1425"/>
      <point x="1280" y="1219"/>
      <point x="1280" y="981"/>
      <point x="1167" y="779"/>
      <point x="1063" y="725" type="qcurve" smooth="yes"/>
      <point x="965" y="676"/>
      <point x="783" y="676" type="qcurve" smooth="yes"/>
      <point x="481" y="676" type="line"/>
      <point x="481" y="0" type="line"/>
      <point x="304" y="0" type="line"/>
    </contour>
    <contour>
      <point x="481" y="1369" type="line"/>
      <point x="478" y="828" type="line"/>
      <point x="788" y="828" type="line" smooth="yes"/>
      <point x="904" y="828"/>
      <point x="968" y="858" type="qcurve" smooth="yes"/>
      <point x="1031" y="892"/>
      <point x="1103" y="1017"/>
      <point x="1103" y="1091" type="qcurve" smooth="yes"/>
      <point x="1103" y="1170"/>
      <point x="1027" y="1303"/>
      <point x="958" y="1337" type="qcurve" smooth="yes"/>
      <point x="891" y="1369"/>
      <point x="771" y="1369" type="qcurve" smooth="yes"/>
    </contour>
  </outline>
</glyph>
<glyph name="r" format="1">
  <advance width="1582"/>
  <unicode hex="0072"/>
  <outline>
    <contour>
      <point x="290" y="1531" type="line"/>
      <point x="742" y="1531" type="line" smooth="yes"/>
      <point x="934" y="1531"/>
      <point x="1035" y="1479" type="qcurve" smooth="yes"/>
      <point x="1138" y="1428"/>
      <point x="1251" y="1229"/>
      <point x="1251" y="1111" type="qcurve" smooth="yes"/>
      <point x="1251" y="958"/>
      <point x="1079" y="720"/>
      <point x="939" y="683" type="qcurve"/>
      <point x="1293" y="0" type="line"/>
      <point x="1101" y="0" type="line"/>
      <point x="762" y="676" type="line"/>
      <point x="464" y="676" type="line"/>
      <point x="464" y="0" type="line"/>
      <point x="290" y="0" type="line"/>
    </contour>
    <contour>
      <point x="464" y="1369" type="line"/>
      <point x="464" y="828" type="line"/>
      <point x="762" y="828" type="line" smooth="yes"/>
      <point x="877" y="828"/>
      <point x="939" y="858" type="qcurve" smooth="yes"/>
      <point x="1005" y="892"/>
      <point x="1074" y="1017"/>
      <point x="1074" y="1091" type="qcurve" smooth="yes"/>
      <point x="1074" y="1170"/>
      <point x="1000" y="1303"/>
      <point x="929" y="1337" type="qcurve" smooth="yes"/>
      <point x="865" y="1369"/>
      <point x="742" y="1369" type="qcurve" smooth="yes"/>
    </contour>
  </outline>
</glyph>
<glyph name="s" format="2">
  <advance width="1582"/>
  <unicode hex="0073"/>
  <outline>
    <contour>
      <point x="1238" y="1354" type="qcurve"/>
      <point x="1130" y="1206" type="line"/>
      <point x="1118" y="1211"/>
      <point x="1115" y="1243"/>
      <point x="1110" y="1251" type="qcurve" smooth="yes"/>
      <point x="1064" y="1319"/>
      <point x="902" y="1403"/>
      <point x="801" y="1403" type="qcurve" smooth="yes"/>
      <point x="673" y="1403"/>
      <point x="523" y="1270"/>
      <point x="523" y="1179" type="qcurve" smooth="yes"/>
      <point x="523" y="1042"/>
      <point x="680" y="951" type="qcurve" smooth="yes"/>
      <point x="715" y="929"/>
      <point x="1091" y="771"/>
      <point x="1169" y="698" type="qcurve" smooth="yes"/>
      <point x="1287" y="587"/>
      <point x="1287" y="422" type="qcurve" smooth="yes"/>
      <point x="1287" y="344"/>
      <point x="1231" y="196"/>
      <point x="1115" y="61"/>
      <point x="911" y="-20"/>
      <point x="776" y="-20" type="qcurve" smooth="yes"/>
      <point x="479" y="-20"/>
      <point x="297" y="177" type="qcurve"/>
      <point x="398" y="354" type="line"/>
      <point x="410" y="346"/>
      <point x="410" y="329" type="qcurve" smooth="yes"/>
      <point x="410" y="312"/>
      <point x="417" y="302" type="qcurve" smooth="yes"/>
      <point x="474" y="231"/>
      <point x="666" y="135"/>
      <point x="781" y="135" type="qcurve" smooth="yes"/>
      <point x="938" y="135"/>
      <point x="1118" y="302"/>
      <point x="1118" y="413" type="qcurve" smooth="yes"/>
      <point x="1118" y="543"/>
      <point x="988" y="624" type="qcurve" smooth="yes"/>
      <point x="943" y="651"/>
      <point x="589" y="796"/>
      <point x="511" y="852" type="qcurve" smooth="yes"/>
      <point x="346" y="973"/>
      <point x="346" y="1152" type="qcurve" smooth="yes"/>
      <point x="346" y="1312"/>
      <point x="612" y="1545"/>
      <point x="813" y="1545" type="qcurve" smooth="yes"/>
      <point x="938" y="1545"/>
      <point x="1160" y="1445"/>
    </contour>
  </outline>
</glyph>
<glyph name="x" format="2">
  <advance width="1582"/>
  <unicode hex="0078"/>
  <outline>
    <contour>
      <point x="341" y="892" type="line"/>
      <point x="425" y="972" type="line"/>
      <point x="792" y="605" type="line"/>
      <point x="1158" y="972" type="line"/>
      <point x="1242" y="892" type="line"/>
      <point x="871" y="523" type="line"/>
      <point x="1242" y="155" type="line"/>
      <point x="1158" y="75" type="line"/>
      <point x="792" y="441" type="line"/>
      <point x="425" y="75" type="line"/>
      <point x="341" y="155" type="line"/>
      <point x="710" y="523" type="line"/>
    </contour>
  </outline>
</glyph>
<glyph name="bar" format="1">
  <advance width="1582"/>
  <unicode hex="007C"/>
  <outline>
    <contour>
      <point x="879" y="-3" type="line"/>
      <point x="703" y="184" type="line"/>
      <point x="703" y="1397" type="line"/>
      <point x="879" y="1231" type="line"/>
    </contour>
  </outline>
</glyph>
<glyph name="asciitilde" format="2">
  <advance width="8"/>
  <unicode hex="007E"/>
  <outline>
    <contour>
      <point x="12022" y="-2000" type="qcurve"/>
      <point x="12258" y="-2000" type="line"/>
      <point x="11773" y="-2273"/>
      <point x="11123" y="-2456" type="qcurve" smooth="yes"/>
      <point x="10198" y="-2717"/>
      <point x="7685" y="-3000"/>
      <point x="6333" y="-3000" type="qcurve" smooth="yes"/>
      <point x="4356" y="-3000"/>
      <point x="1098" y="-2445"/>
      <point x="396" y="-2000" type="qcurve"/>
      <point x="664" y="-2000" type="line"/>
      <point x="1098" y="-2222"/>
      <point x="2603" y="-2509"/>
      <point x="4911" y="-2650"/>
      <point x="6168" y="-2650" type="qcurve" smooth="yes"/>
      <point x="7532" y="-2650"/>
      <point x="8648" y="-2590" type="qcurve" smooth="yes"/>
      <point x="9528" y="-2543"/>
      <point x="10593" y="-2409"/>
      <point x="11576" y="-2182"/>
    </contour>
  </outline>
</glyph>
<glyph name="quoteright" format="1">
  <advance width="1582"/>
  <unicode hex="2019"/>
  <outline>
    <contour>
      <point x="464" y="849" type="line"/>
      <point x="809" y="905" type="line"/>
      <point x="665" y="419" type="line"/>
      <point x="840" y="718"/>
      <point x="983" y="837" type="qcurve" smooth="yes"/>
      <point x="1064" y="905"/>
      <point x="1115" y="905" type="qcurve" smooth="yes"/>
      <point x="1148" y="905"/>
      <point x="1186" y="866"/>
      <point x="1186" y="829" type="qcurve" smooth="yes"/>
      <point x="1186" y="763"/>
      <point x="1152" y="703" type="qcurve" smooth="yes"/>
      <point x="1128" y="658"/>
      <point x="1083" y="658" type="qcurve" smooth="yes"/>
      <point x="1060" y="658"/>
      <point x="1027" y="688"/>
      <point x="1023" y="719" type="qcurve" smooth="yes"/>
      <point x="1021" y="738"/>
      <point x="1014" y="744" type="qcurve" smooth="yes"/>
      <point x="1006" y="752"/>
      <point x="995" y="752" type="qcurve" smooth="yes"/>
      <point x="978" y="752"/>
      <point x="963" y="744" type="qcurve" smooth="yes"/>
      <point x="937" y="730"/>
      <point x="884" y="666" type="qcurve" smooth="yes"/>
      <point x="801" y="568"/>
      <point x="704" y="412" type="qcurve" smooth="yes"/>
      <point x="662" y="346"/>
      <point x="632" y="263" type="qcurve" smooth="yes"/>
      <point x="590" y="149"/>
      <point x="584" y="126" type="qcurve" smooth="yes"/>
      <point x="552" y="0" type="line"/>
      <point x="399" y="0" type="line"/>
      <point x="584" y="621" type="line" smooth="yes"/>
      <point x="616" y="729"/>
      <point x="616" y="775" type="qcurve" smooth="yes"/>
      <point x="616" y="793"/>
      <point x="601" y="805" type="qcurve" smooth="yes"/>
      <point x="581" y="821"/>
      <point x="548" y="821" type="qcurve" smooth="yes"/>
      <point x="527" y="821"/>
      <point x="471" y="812" type="qcurve"/>
    </contour>
  </outline>
</glyph>
